<?xml version="1.0" encoding="utf-8"?>
<!-- Generator: Adobe Illustrator 17.0.0, SVG Export Plug-In . SVG Version: 6.00 Build 0)  -->
<!DOCTYPE svg PUBLIC "-//W3C//DTD SVG 1.1//EN" "http://www.w3.org/Graphics/SVG/1.1/DTD/svg11.dtd">
<svg version="1.1" id="Scenario_1" xmlns="http://www.w3.org/2000/svg" xmlns:xlink="http://www.w3.org/1999/xlink" x="0px" y="0px"
	 width="413.916px" height="524.216px" viewBox="0 0 413.916 524.216" enable-background="new 0 0 413.916 524.216"
	 xml:space="preserve">
<g id="Country_Mainland">
	<path fill="#ABD69B" stroke="#51B848" stroke-miterlimit="10" d="M268.062,244.803H250.62l-5.814-5.814h-5.815l-11.628-11.629
		v-5.814l-5.814-5.814h-11.628l-5.814,5.814h-5.814l-5.814,5.814h17.442l34.885,34.885h17.442v5.814l5.814,5.815v5.814
		l11.629,11.628v5.814l5.814-5.814l5.814,5.814l5.814-5.814v-11.628l-5.814,5.814h-11.628l-5.815-5.814v-29.071L268.062,244.803z
		 M76.195,70.378h40.699l23.257-23.257h46.514V35.493h23.256l5.814-5.814h29.071l5.814-5.815h11.628V18.05h23.257l5.814-5.814
		v11.628h5.814l11.628,11.629v-5.814h11.629l11.628,11.628h11.628l5.814-5.814h34.885l5.815-5.814V12.236h-5.815V6.422l5.815-5.814
		l23.256,11.628v23.257h-5.814l-5.814,5.814V58.75l-17.443,17.442h-23.256l-5.814-5.814h-11.629l-5.814-5.814h-5.814l-5.814-5.814
		h-5.814l-11.629,11.628h-11.628l-5.814-5.814h-11.628v5.814l-11.629,11.628h-5.814l-5.814-5.814h-17.443v5.814l11.629,11.629v5.814
		h-5.814l5.814,5.814h5.814l5.814,5.814h5.814l11.629,11.628v5.815h-5.815l-17.442-17.443h-11.628l-5.815,5.814l11.629,11.629h5.814
		l5.814,5.814l-5.814,5.814v5.814h-5.814v-5.814l-5.814-5.814v-5.814l-11.629-11.629h-5.814l-5.814,5.814v5.815l11.628,11.628h5.814
		l5.815,5.814h-17.443l-5.814-5.814v-5.814l-5.814-5.814v-5.815l-5.814-5.814h-11.628l-5.814-5.814V99.449h5.814v-5.814h-17.442
		l-5.815,5.814v5.814l5.815,5.814l-5.815,5.814v17.443l5.815,5.814v11.628l34.884,34.885v5.814l5.814,5.814v5.815h-5.814
		l-5.814,5.814v-11.629l-5.814-5.814h-11.628l-5.814,5.814v5.815h5.814l5.814,5.814v5.814l-11.628,11.628h-11.629l-5.814-5.814
		v11.628h29.071l11.628,11.629h11.628v5.814l5.814,5.814h5.814l5.814,5.814v5.814l5.815,5.815h11.628l5.814,5.814l-5.814,5.814
		v5.814l5.814,5.814v23.258h-5.814v-5.815h-5.814l-5.814-5.814v-5.815l-11.629-11.628h-5.814l-5.814,5.814h-11.628l-11.628,5.814
		v5.815h5.814l5.814,5.814v11.628h5.814l5.814,5.815h5.814v5.813h-11.628l-5.814,5.815h-5.814v-5.815l-11.628-11.628h-11.628v5.815
		l5.814,5.813v5.815l5.814,5.814v11.628h5.814v11.628l5.814,5.815v17.442l11.628,11.628l-5.814,5.814l-5.814-5.814h-5.814v-5.814
		l-11.628-11.628v-5.814h-11.629v5.814l-5.814,5.814v17.442l-5.814-5.814v-11.628l-5.814-5.814v-5.814l-11.628-11.629V366.9h-5.815
		l-5.814,5.814v17.443h-5.814v-5.814l-11.629-11.629v-17.441l5.815-5.815v-5.814l-5.815-5.815v-5.813l-11.628-11.628H93.637
		l5.815-5.815l-5.815-5.814h-5.814V297.13l11.629-11.628v-5.814h23.257l11.628-11.629h5.814l11.629,11.629h5.814l5.814,5.814h17.443
		v5.814l5.814,5.814h5.814l5.814-5.814h11.628l5.814-5.814l-5.814-5.814h-23.256v-5.814l-5.814-5.815v-5.814l-5.815,5.814v5.815
		h-5.814v-5.815l-5.814-5.814v5.814H151.78l-5.814-5.814h-11.629l-5.814,5.814h-23.257l-5.814-5.814v5.814H87.823l-5.814-5.814
		v-11.628l-11.628-11.628h-5.814V227.36l5.814-5.814h11.628l5.814,5.814v-11.628H76.195l-5.814-5.814h-5.814v11.628h-5.814v-11.628
		h-5.814l-17.443-17.443v-11.628h-5.814v-11.628L41.31,157.59v-11.628l-5.814-5.814l5.814-5.814h17.443v-11.629l5.814-5.814v-5.814
		l5.814-5.814h5.814l5.814-5.814V87.821l-5.814-5.815V70.378"/>
	<path fill="#ABD69B" stroke="#51B848" stroke-miterlimit="10" d="M343.535,361.726v11.628h11.629v-17.442h-5.815L343.535,361.726z
		 M337.721,373.354v-11.628h-5.814l-5.814,5.814l5.814,5.814H337.721 M337.721,338.469h5.814l5.814-5.813h-11.628V338.469
		 M326.093,326.841v5.815l5.814,5.813v-11.628l-5.814-5.814h-5.814L326.093,326.841 M308.65,332.656v11.628l5.814-5.815v-11.628
		L308.65,332.656 M314.464,315.212l-11.628-17.442h5.814l11.629,17.442H314.464 M279.579,341.376l5.815-5.815l-5.815-5.813
		l-5.814,5.813L279.579,341.376 M64.456,303.584l-5.814-5.814l-5.814,5.814l5.814,5.815v11.628H70.27l5.814-5.815l-5.814-5.813
		h-5.814V303.584 M58.642,274.513l11.628,11.629v5.814H58.642l-5.814-5.814h-5.815v-5.815l-5.814,5.815l-5.814-5.815l5.814-5.814
		v-5.814h11.629v-11.628l5.814,5.814V274.513 M58.642,233.814v17.443H47.013l5.815-5.815l-5.815-5.814l5.815-5.814H58.642
		 M0.5,158.23h17.443v5.814h-5.815v11.629l5.815,5.814v5.814L6.314,175.673v-5.815L0.5,164.044V158.23"/>
	<polygon fill="#ABD69B" stroke="#51B848" stroke-miterlimit="10" points="240.34,465.574 243.247,465.574 243.247,477.202 
		249.061,477.202 251.968,480.11 257.782,480.11 263.597,471.388 269.411,471.388 269.411,480.11 263.597,480.11 263.597,483.016 
		272.317,483.016 272.317,488.831 275.225,491.738 283.946,491.738 286.853,488.831 289.761,488.831 292.667,485.924 
		315.924,485.924 318.831,488.831 318.831,491.738 336.274,491.738 339.181,494.645 347.902,494.645 350.809,491.738 
		365.344,491.738 362.437,494.645 362.437,500.459 359.531,503.366 359.531,509.181 365.344,509.181 368.251,506.273 
		371.159,506.273 374.066,503.366 376.972,503.366 379.88,500.459 388.601,500.459 394.416,494.645 394.416,509.181 
		388.601,514.995 385.694,514.995 382.787,517.901 382.787,514.995 374.066,514.995 371.159,517.901 336.274,517.901 
		330.459,523.716 301.389,523.716 301.389,512.087 289.761,512.087 281.039,503.366 257.782,503.366 254.876,500.459 
		231.618,500.459 228.712,497.552 228.712,488.831 231.618,485.924 231.618,471.388 234.526,471.388 234.526,477.202 
		237.433,480.11 240.34,480.11 	"/>
</g>
</svg>
